<?xml version="1.0" standalone="no"?>
<!DOCTYPE svg PUBLIC "-//W3C//DTD SVG 20010904//EN"
 "http://www.w3.org/TR/2001/REC-SVG-20010904/DTD/svg10.dtd">
<svg version="1.0" xmlns="http://www.w3.org/2000/svg"
 width="1920.000000pt" height="1214.000000pt" viewBox="0 0 1920.000000 1214.000000"
 preserveAspectRatio="xMidYMid meet">
<metadata>
Created by potrace 1.15, written by Peter Selinger 2001-2017
</metadata>
<g transform="translate(0.000000,1214.000000) scale(0.100000,-0.100000)"
fill="#000000" stroke="none">
<path d="M1 11927 l1 -214 47 4 c60 5 107 23 89 34 -9 6 -9 9 -1 9 6 0 14 -4
17 -9 7 -10 134 -14 181 -5 22 4 31 11 31 25 0 12 -5 18 -13 15 -7 -3 -13 -2
-13 2 0 16 17 31 44 42 28 10 28 11 10 25 -10 8 -14 15 -7 15 14 0 6 31 -11
42 -6 4 -1 6 12 5 20 -1 27 -9 23 -31 -1 -5 8 -15 20 -24 17 -11 18 -16 8 -23
-11 -7 -10 -9 3 -9 9 0 25 -3 35 -6 15 -5 16 -4 3 5 -12 10 -11 11 10 9 14 -2
24 -9 22 -16 -1 -6 2 -12 8 -12 5 0 7 -6 4 -14 -4 -9 3 -16 18 -20 13 -2 6 -4
-14 -2 -21 1 -38 -1 -38 -5 0 -11 -26 -5 -43 9 -10 9 -17 10 -22 2 -3 -5 -1
-10 4 -10 6 0 11 -7 11 -15 0 -8 6 -15 13 -15 8 0 7 -3 -3 -10 -8 -5 -26 -7
-40 -4 -20 5 -22 3 -10 -6 12 -8 7 -10 -20 -5 -72 10 -157 9 -214 -5 -61 -14
-57 -28 8 -29 40 -1 25 -13 -22 -18 -27 -2 -43 1 -52 12 -7 8 -27 15 -44 14
-26 0 -28 -2 -11 -9 17 -7 15 -9 -12 -9 l-33 -1 0 -214 c0 -196 2 -215 18
-219 16 -4 16 -5 0 -6 -17 -1 -18 -279 -18 -5616 l0 -5615 5640 0 c4486 0
5645 3 5661 13 17 9 23 9 26 0 3 -7 9 -13 14 -13 6 0 8 4 4 9 -3 5 -1 12 4 15
5 4 12 -2 14 -11 3 -13 5 -12 6 5 1 15 -12 37 -34 59 -20 20 -34 37 -32 39 9
9 73 -52 69 -65 -3 -10 0 -12 11 -8 11 4 21 -1 28 -16 11 -19 10 -20 -3 -10
-15 13 -28 8 -28 -9 0 -13 73 -3 78 11 2 6 -3 11 -11 11 -8 0 -17 9 -20 20 -3
11 -1 20 4 20 5 0 9 5 9 11 0 6 -9 8 -20 4 -20 -6 -80 14 -80 27 0 8 41 38 53
38 4 0 3 -9 -3 -19 -12 -24 1 -35 30 -26 22 7 27 25 8 26 -7 0 -1 5 14 10 17
7 25 16 22 24 -4 10 2 13 23 12 32 -2 48 -18 30 -29 -7 -5 -3 -8 13 -8 19 0
21 -3 12 -12 -10 -10 -17 -10 -33 0 -12 8 -24 11 -27 8 -3 -3 0 -6 6 -6 16 0
13 -80 -4 -87 -8 -3 -14 -13 -14 -23 0 -17 10 -19 129 -19 113 0 130 3 133 17
3 10 2 26 -2 36 -6 18 -7 18 -13 2 -6 -15 -10 -16 -22 -6 -16 13 -9 40 11 40
8 0 14 5 14 10 0 6 -7 10 -16 10 -8 0 -12 4 -9 10 9 15 -6 12 -24 -4 -9 -7
-29 -18 -45 -23 -17 -5 -32 -15 -34 -23 -3 -7 0 -10 7 -6 6 4 11 3 11 -2 0 -5
-12 -9 -26 -9 -16 0 -21 2 -14 7 19 12 -22 30 -50 23 -15 -4 -21 -2 -17 4 8
13 57 23 57 12 0 -5 4 -9 10 -9 5 0 9 10 7 22 -1 15 3 22 11 20 8 -1 11 1 8 6
-3 5 6 19 19 32 25 24 25 40 -1 40 -8 0 -14 -8 -14 -17 0 -13 -3 -14 -12 -5
-10 10 -10 17 0 32 10 17 9 18 -6 13 -15 -6 -15 -4 2 15 13 16 26 20 46 15 26
-5 28 -3 23 16 -7 26 33 74 55 66 7 -2 11 -1 8 3 -9 14 24 45 49 45 22 0 25 4
25 32 0 20 6 35 15 39 8 3 15 1 15 -3 0 -5 -6 -11 -13 -14 -6 -2 -9 -8 -5 -12
10 -11 28 4 28 23 0 23 56 89 66 79 5 -4 3 -17 -4 -27 -10 -17 -10 -20 4 -20
14 0 14 -3 4 -15 -7 -8 -9 -15 -4 -15 5 0 2 -5 -6 -10 -11 -7 -12 -12 -3 -21
8 -8 15 -4 27 19 9 17 27 39 42 51 14 11 40 42 56 68 17 26 43 66 59 89 39 57
94 169 123 250 34 96 52 264 34 313 -7 18 -5 28 8 40 15 15 16 14 10 -3 -4
-11 -3 -22 2 -25 5 -3 11 -32 14 -64 3 -43 1 -60 -9 -66 -12 -6 -11 -12 2 -37
8 -16 15 -37 15 -46 0 -38 25 -108 36 -104 13 5 24 -24 24 -61 0 -14 -6 -23
-15 -23 -19 0 -19 -36 -1 -69 11 -19 11 -30 0 -60 -17 -48 -17 -67 2 -118 18
-48 22 -49 50 -28 10 8 22 15 26 15 12 0 31 -72 21 -79 -6 -3 -13 -24 -17 -46
-4 -22 -19 -54 -32 -72 -13 -17 -24 -36 -24 -42 0 -6 -4 -11 -10 -11 -5 0 -12
-11 -16 -25 -3 -13 -9 -23 -13 -22 -4 1 -41 -34 -82 -77 -41 -44 -90 -86 -109
-95 -19 -9 -62 -34 -95 -56 l-60 -40 92 -3 c85 -3 95 -1 135 24 24 15 45 30
48 34 3 3 15 6 26 6 12 0 38 16 57 37 20 20 41 37 46 37 5 0 11 6 14 13 2 6 8
9 12 5 10 -10 -14 -40 -26 -32 -5 3 -6 -1 -3 -9 3 -8 -13 -35 -35 -61 -23 -26
-41 -49 -41 -52 0 -2 98 -4 217 -4 124 0 213 4 208 9 -14 12 -65 23 -65 14 0
-5 -11 -9 -25 -9 -14 -1 -25 0 -25 2 0 9 53 37 84 44 41 9 162 -12 228 -40 53
-23 92 -26 85 -7 -2 6 -11 11 -19 9 -9 -1 -18 4 -22 13 -5 15 2 15 156 1 15
-1 36 -10 48 -21 18 -16 23 -17 47 -4 20 11 27 11 30 2 5 -15 33 -17 33 -3 0
6 -7 10 -16 10 -9 0 -14 6 -11 13 2 6 14 11 26 9 34 -5 53 15 38 39 -10 16 -9
21 3 29 13 8 12 11 -5 24 -11 8 -23 12 -27 10 -5 -3 -14 -2 -20 3 -13 8 -33
13 -55 15 -7 1 -13 6 -13 12 -1 28 -16 35 -54 26 -43 -9 -73 8 -62 35 3 8 1
17 -4 20 -5 3 -11 -4 -15 -15 -9 -29 -28 -24 -44 12 -13 28 -12 32 4 45 11 7
23 13 27 13 5 0 6 11 2 25 -5 20 -2 25 18 29 89 19 158 7 172 -30 4 -9 12 -14
21 -10 10 3 18 -1 21 -12 3 -9 14 -35 24 -58 16 -36 24 -42 67 -53 26 -6 71
-19 100 -28 34 -10 68 -14 97 -10 26 4 66 4 91 0 36 -5 43 -8 34 -19 -6 -8
-16 -11 -23 -7 -6 4 -5 -1 2 -10 12 -15 16 -14 50 3 20 10 51 21 67 24 17 2
31 5 33 5 2 1 -17 38 -41 84 -24 45 -52 97 -61 115 l-17 34 -20 -24 c-16 -17
-19 -31 -14 -58 8 -41 8 -40 6 -65 -1 -16 -5 -13 -15 11 -8 18 -13 40 -13 49
2 18 -11 29 -55 45 -38 13 -35 36 7 50 38 12 42 19 23 38 -20 20 -3 14 55 -21
30 -19 73 -54 95 -80 22 -25 55 -59 73 -75 54 -47 252 -182 267 -182 8 0 37
-12 66 -26 43 -22 60 -25 114 -21 56 4 62 3 62 -14 0 -16 8 -19 45 -19 44 0
45 1 45 31 0 17 -4 39 -10 49 -22 41 -428 361 -620 488 -52 35 -207 119 -345
188 -137 69 -251 132 -253 140 -2 8 11 22 30 32 18 9 56 40 84 67 56 54 74
104 74 204 0 27 10 80 21 117 30 97 28 143 -11 204 -26 40 -30 55 -25 82 9 41
22 58 46 58 10 0 33 13 52 29 18 16 46 33 61 37 19 4 38 23 58 55 16 27 34 49
39 49 4 0 15 12 23 27 8 16 35 50 60 78 31 34 49 67 60 105 20 70 21 183 3
199 -24 19 -75 24 -120 12 -42 -12 -43 -12 -112 34 -38 26 -80 58 -92 71 -21
23 -43 29 -91 25 -14 -1 -52 16 -89 40 -36 24 -99 53 -141 65 -43 13 -160 52
-262 87 -180 62 -262 85 -385 108 -39 7 -88 27 -140 58 -73 43 -80 51 -86 85
-5 28 -3 36 7 32 8 -3 11 0 7 10 -3 8 1 22 10 32 8 9 17 26 19 37 6 34 145 83
180 64 10 -5 18 -7 18 -3 0 14 34 -23 46 -51 10 -23 13 -25 13 -10 1 11 -13
40 -29 64 -17 24 -30 47 -30 50 1 3 12 20 26 36 15 17 23 25 20 18 -12 -22 13
-23 34 -1 16 18 23 20 29 9 5 -8 22 -12 47 -9 33 2 40 -1 54 -25 14 -25 13
-30 -9 -70 l-24 -42 26 23 c29 27 43 70 28 85 -6 6 -11 17 -11 25 0 15 50 59
62 55 5 -2 8 3 8 11 0 22 24 38 38 24 9 -9 12 -9 12 -1 0 6 14 14 30 18 30 7
30 7 9 24 -20 16 -34 81 -16 81 4 0 5 5 2 10 -4 6 -1 17 5 25 13 16 5 35 -15
35 -8 0 -11 7 -8 20 3 12 8 18 11 16 3 -3 11 2 18 12 12 16 14 16 26 -1 8 -11
23 -17 33 -15 18 3 25 -9 41 -69 2 -7 10 -13 17 -13 17 0 32 99 18 113 -13 13
-34 -2 -27 -19 8 -21 -17 -6 -38 22 -10 14 -19 36 -20 49 -1 21 -3 22 -15 11
-10 -11 -21 -12 -45 -4 -17 6 -32 12 -34 13 -5 4 32 71 47 85 25 25 57 3 53
-36 -2 -21 2 -33 12 -37 13 -5 13 -2 4 18 -15 34 5 57 46 52 17 -2 23 -2 13 0
-10 3 -22 16 -27 29 -8 19 -5 29 11 45 11 11 17 25 13 31 -4 6 -1 9 7 6 8 -3
12 -13 11 -23 -3 -16 -1 -17 11 -6 13 10 19 9 34 -6 19 -19 20 -19 37 4 9 13
22 23 27 23 21 0 35 26 37 72 1 25 9 65 18 88 l17 43 14 -34 c14 -36 63 -69
63 -43 0 8 -7 14 -16 14 -12 0 -15 5 -9 22 4 13 9 38 12 56 3 18 9 35 14 38 5
3 9 15 9 28 0 12 4 26 9 32 5 5 11 22 13 38 3 32 28 49 28 19 1 -17 1 -17 11
0 5 9 17 17 26 17 14 0 14 2 -3 16 -10 8 -14 13 -9 11 6 -3 18 1 28 8 17 12
17 14 1 23 -10 6 -15 16 -11 26 9 23 33 20 52 -6 14 -21 14 -24 0 -34 -14 -10
-14 -13 0 -24 8 -7 15 -21 15 -32 0 -10 4 -17 9 -13 13 8 31 -27 32 -62 0 -15
3 -23 5 -16 3 7 11 10 19 7 11 -4 11 2 3 33 -14 56 -18 154 -7 176 10 17 12
17 28 3 10 -9 23 -16 29 -16 7 0 12 -5 12 -11 0 -5 5 -7 10 -4 18 11 10 54
-16 82 -14 15 -23 22 -19 16 4 -9 -1 -13 -14 -13 -21 0 -27 11 -14 23 3 4 8
22 10 39 7 72 11 124 12 151 1 33 31 38 32 5 1 -21 2 -20 14 7 8 17 14 24 15
17 0 -7 15 -33 33 -57 17 -23 37 -51 44 -61 8 -13 8 -7 -1 16 -31 80 -28 119
12 202 20 42 31 72 24 66 -7 -6 -21 -30 -32 -54 -10 -24 -24 -44 -29 -44 -6 0
-11 -10 -11 -22 0 -13 -4 -30 -9 -37 -19 -30 3 75 27 129 13 30 26 80 29 110
l5 55 -36 13 c-36 13 -56 10 -56 -10 0 -7 5 -6 14 1 20 17 56 -20 55 -56 0
-44 -35 -118 -53 -117 -15 2 -27 -28 -38 -90 -4 -27 -20 -30 -43 -8 -28 25
-94 43 -115 32 -12 -6 -23 -5 -36 4 -10 8 -24 12 -30 9 -7 -2 -21 5 -31 17
-16 17 -19 30 -15 73 2 29 6 53 7 55 1 1 15 -2 30 -8 21 -8 26 -15 22 -31 -4
-13 -1 -18 6 -15 7 3 20 9 29 12 9 3 18 12 20 20 3 12 7 12 31 0 15 -8 27 -11
27 -6 0 4 -5 10 -12 12 -21 7 3 28 32 28 16 0 35 6 42 13 7 7 21 16 31 20 18
7 24 37 7 37 -19 0 -10 39 10 45 24 8 26 32 4 56 -38 42 22 52 88 15 53 -29
79 -63 88 -113 l8 -38 1 45 c2 66 -24 100 -109 144 -57 30 -82 57 -86 96 -4
36 -11 50 -24 50 -10 0 -7 -46 3 -57 9 -9 9 -23 0 -23 -10 0 -33 49 -33 68 0
7 -12 18 -27 23 -30 11 -77 74 -67 90 3 5 12 9 20 9 40 0 51 114 18 179 -16
31 -9 44 17 31 16 -9 19 -7 20 12 4 57 8 97 17 146 6 37 6 52 -2 52 -7 0 -13
-15 -14 -32 -3 -42 -15 -53 -41 -39 -16 9 -21 9 -21 0 0 -7 -9 -9 -27 -4 -26
6 -27 5 -12 -12 9 -10 19 -26 22 -35 6 -16 4 -16 -16 -5 -48 27 -72 50 -72 70
0 13 -7 21 -20 22 -18 1 -49 23 -90 62 -6 6 -23 13 -36 15 -19 2 -27 14 -41
58 -10 30 -23 65 -30 78 -10 19 -8 26 18 55 16 17 32 33 37 35 4 2 7 8 7 13 0
18 -25 8 -57 -23 -31 -30 -34 -31 -49 -16 -9 9 -18 29 -20 45 -12 114 -17 125
-84 158 -49 25 -106 87 -66 72 11 -4 13 -1 9 10 -5 12 -2 15 10 10 24 -9 22
-6 -23 44 -22 24 -40 39 -40 33 0 -6 7 -17 15 -24 8 -7 15 -24 15 -39 0 -26
-1 -26 -33 11 -44 51 -116 82 -172 74 -40 -7 -43 -5 -48 20 -5 28 20 94 35 94
4 0 8 9 8 20 0 13 7 20 20 20 11 0 20 -4 20 -9 0 -5 11 -11 24 -13 16 -3 23 0
22 10 0 8 4 17 9 19 11 3 41 -62 39 -84 -1 -6 5 -9 12 -6 14 5 12 26 -7 87 -5
16 -9 33 -9 38 0 16 58 -21 84 -54 14 -18 26 -28 26 -22 0 22 -41 63 -84 84
-35 17 -47 29 -57 58 -6 20 -15 42 -19 47 -4 6 -8 30 -9 54 0 24 -6 50 -11 56
-8 9 -7 15 2 18 7 3 8 6 2 6 -6 1 -41 30 -77 65 -66 63 -110 84 -134 64 -8 -6
-19 -6 -33 2 -16 8 -25 8 -35 0 -7 -6 -24 -8 -36 -5 -105 23 -132 25 -186 15
-78 -14 -103 -13 -103 5 0 25 -30 17 -60 -15 -31 -33 -50 -39 -50 -15 0 9 -6
15 -12 14 -7 -2 -38 2 -68 8 -30 7 -71 14 -90 17 -54 9 -63 18 -50 50 14 38
34 56 64 56 14 0 28 5 32 11 5 9 -1 10 -20 5 -22 -5 -27 -4 -24 11 2 12 -4 19
-20 21 -12 2 -22 9 -21 15 5 44 -5 74 -32 95 l-29 23 -29 -20 c-16 -12 -38
-21 -48 -21 -20 0 -63 34 -63 50 0 20 -77 60 -116 62 -25 0 -55 11 -82 29 -52
35 -68 37 -27 4 16 -13 26 -28 22 -32 -5 -4 -11 -3 -15 3 -4 5 -20 11 -36 12
-16 1 -35 7 -42 13 -18 15 -18 49 0 49 9 0 12 7 9 20 -3 11 2 40 11 65 10 24
18 54 20 67 7 63 35 69 63 14 9 -18 18 -26 21 -18 7 21 -7 62 -22 62 -7 0 -21
9 -32 21 -18 20 -18 22 -2 33 10 7 14 17 10 21 -4 4 6 5 21 1 19 -4 26 -3 22
4 -10 17 28 11 62 -9 29 -19 43 -18 43 1 0 4 -9 8 -21 8 -11 0 -32 9 -46 20
-14 11 -32 20 -39 20 -8 0 -14 7 -14 15 0 17 -16 20 -25 5 -4 -6 -14 -9 -23
-8 -9 2 -16 -2 -15 -9 4 -19 -15 -63 -27 -63 -15 0 -8 42 12 72 9 14 14 28 11
32 -12 11 -46 6 -64 -10 -20 -18 -88 -57 -139 -80 -19 -9 -49 -32 -67 -52 -17
-19 -42 -36 -55 -38 -13 -1 -26 -3 -29 -3 -4 -1 -9 -9 -13 -18 -3 -10 -18 -40
-34 -67 -23 -40 -37 -53 -71 -64 -46 -15 -61 -11 -41 13 7 9 13 29 12 45 0 20
4 30 14 30 8 0 14 6 13 13 -3 17 11 47 22 47 5 0 18 9 28 19 11 11 36 23 55
27 20 3 36 10 36 15 0 5 24 24 52 44 29 19 47 35 40 35 -8 0 -34 -14 -60 -32
-26 -18 -48 -31 -50 -30 -1 2 -30 -11 -65 -27 -34 -16 -74 -32 -89 -36 -14 -4
-34 -15 -44 -26 -11 -12 -25 -17 -38 -13 -17 4 -18 3 -6 -5 12 -9 11 -11 -7
-11 -18 0 -23 -6 -23 -27 l-1 -28 -20 28 c-12 15 -26 24 -32 20 -8 -4 -7 -1 1
9 11 13 10 16 -5 14 -12 -1 -19 7 -21 25 -2 18 -11 29 -25 33 -33 9 -44 7 -24
-5 20 -12 23 -55 5 -62 -7 -2 -26 0 -43 5 -51 14 -80 9 -105 -17 -13 -14 -19
-25 -13 -25 6 0 16 7 23 15 18 22 44 27 76 15 23 -9 25 -13 14 -20 -8 -6 -25
-10 -38 -10 -12 0 -30 -9 -39 -20 -21 -24 -43 -26 -43 -5 0 12 -4 13 -19 5
-24 -12 -32 -12 -50 -1 -11 7 -11 12 2 32 11 18 13 30 5 49 -18 44 -17 79 2
85 10 3 25 17 34 30 9 14 23 25 31 25 8 0 15 5 15 10 0 26 -53 4 -98 -40 -22
-21 -26 -34 -26 -78 0 -47 -2 -53 -20 -50 -11 2 -26 14 -33 28 -16 32 -17 7
-1 -37 9 -24 9 -36 2 -41 -22 -14 -35 -54 -30 -88 4 -19 3 -46 0 -59 -6 -22
-8 -23 -112 -21 l-107 1 -3 -30 c-1 -16 -5 -40 -8 -53 -5 -26 -58 -62 -91 -62
-25 0 -58 -42 -69 -86 -7 -31 -68 -94 -91 -94 -8 0 -16 -7 -19 -15 -4 -8 -10
-15 -16 -15 -5 0 -16 -7 -24 -15 -9 -8 -30 -15 -49 -15 -41 0 -67 -9 -59 -21
6 -10 -32 -7 -42 4 -3 3 -17 -7 -30 -23 -14 -16 -41 -34 -62 -41 -20 -6 -42
-15 -48 -20 -6 -5 -13 -6 -17 -3 -11 11 -68 -31 -88 -64 -12 -21 -25 -32 -34
-29 -9 4 -16 -4 -20 -24 -6 -26 -10 -30 -31 -25 -21 6 -24 3 -24 -20 0 -22 -4
-25 -21 -21 -15 4 -23 -1 -30 -21 -12 -32 -64 -82 -85 -82 -8 0 -14 -4 -14 -9
0 -5 -15 -13 -32 -16 -18 -4 -41 -16 -51 -26 -26 -27 -43 -24 -42 9 0 15 -5
32 -12 37 -7 6 -14 27 -15 47 -2 21 -6 38 -10 38 -5 0 -8 7 -8 15 0 8 -9 30
-19 49 -11 19 -17 37 -14 40 4 3 0 14 -8 23 -22 28 -39 61 -39 78 0 8 -4 15
-10 15 -5 0 -10 7 -10 15 0 8 -4 15 -8 15 -4 0 -14 20 -21 45 -7 25 -22 56
-32 69 -11 14 -19 28 -18 33 2 16 -13 53 -23 53 -5 0 -7 4 -4 9 3 4 -10 38
-29 74 -19 37 -34 77 -33 89 0 13 -6 47 -15 77 -9 29 -14 57 -11 62 3 5 -1 9
-8 9 -13 0 -38 44 -38 67 0 7 -4 13 -10 13 -5 0 -10 9 -10 19 0 10 -7 22 -16
25 -8 3 -13 10 -10 15 4 5 0 16 -8 23 -7 8 -17 25 -21 38 -4 13 -20 38 -36 54
-16 17 -32 40 -35 51 -3 11 -16 29 -29 40 -12 11 -25 30 -29 43 -4 12 -15 22
-24 22 -11 0 -13 3 -6 8 7 4 10 28 7 62 -2 30 -4 64 -4 75 0 11 -5 38 -11 60
-6 22 -12 54 -13 70 -1 17 -11 48 -22 70 -11 22 -30 74 -43 115 -13 41 -28 78
-33 81 -5 4 -7 11 -4 16 4 6 -3 34 -14 64 -12 30 -24 66 -26 82 -3 15 -9 27
-14 27 -5 0 -9 14 -9 30 0 17 -4 30 -9 30 -4 0 -8 17 -8 38 0 21 -6 49 -14 63
-7 13 -13 32 -14 42 -1 11 -7 22 -14 26 -7 5 -11 17 -9 27 2 11 -2 18 -10 16
-6 -1 -11 1 -10 5 3 13 -32 75 -69 121 -23 28 -33 50 -30 62 3 11 1 20 -5 20
-6 0 -8 7 -5 15 4 8 2 17 -4 21 -6 3 -8 12 -5 19 2 7 -1 21 -8 31 -27 40 -46
102 -33 107 9 4 9 6 0 6 -7 1 -13 8 -13 16 0 8 -9 29 -20 47 -11 18 -20 43
-20 56 0 12 -6 25 -14 28 -14 5 -25 37 -31 90 -1 13 -8 31 -16 40 -8 10 -15
27 -16 38 -6 64 -50 189 -100 280 -8 15 -16 33 -17 40 -5 28 -18 56 -26 56 -5
0 -7 7 -3 15 3 9 -1 23 -9 33 -8 9 -20 30 -27 46 -10 24 -10 31 1 37 8 6 9 9
2 9 -12 0 -25 48 -24 91 0 15 -6 29 -14 32 -8 3 -12 16 -10 33 1 16 -1 33 -6
39 -5 6 -11 26 -13 45 -7 54 -33 119 -54 133 -6 4 -14 21 -18 37 -4 17 -11 30
-16 30 -6 0 -7 9 -4 21 5 15 4 19 -4 15 -10 -6 -15 6 -12 26 0 4 -8 12 -19 18
-11 6 -20 19 -20 29 0 12 -10 21 -26 25 -16 4 -24 13 -22 24 1 9 -1 23 -5 30
-5 7 -3 12 4 12 8 0 8 4 -1 15 -7 9 -13 48 -14 98 -1 58 -7 98 -23 137 -30 78
-73 218 -73 240 0 10 -4 22 -10 25 -6 3 -10 15 -10 26 0 12 -4 17 -11 13 -7
-4 -10 -1 -7 7 3 8 0 30 -7 49 -7 19 -20 62 -30 95 -9 33 -23 80 -31 104 -8
24 -11 47 -8 52 3 5 0 9 -7 9 -7 0 -9 3 -6 7 4 3 2 11 -3 18 -5 6 -12 34 -15
61 -4 27 -13 56 -21 65 -8 8 -14 25 -14 36 0 12 -4 23 -9 25 -5 2 -11 18 -14
36 -3 18 -10 38 -15 45 -5 7 -13 23 -17 37 -4 14 -20 41 -36 61 -16 20 -26 39
-22 43 3 3 1 6 -5 6 -7 0 -17 20 -23 45 -6 25 -15 48 -20 51 -5 3 -9 13 -9 23
0 10 -7 24 -15 31 -9 7 -14 19 -11 25 2 7 -1 18 -7 24 -16 16 -6327 16 -6327
0 0 -8 -4 -8 -14 0 -12 10 -14 8 -10 -11 2 -13 2 -17 -2 -10 -3 6 -10 10 -15
6 -5 -3 -12 2 -15 10 -5 14 -37 16 -236 16 l-229 0 2 -213z m399 -717 c0 -11
-3 -19 -7 -19 -23 4 -34 -4 -49 -36 -9 -19 -22 -35 -30 -35 -13 0 -36 -32 -33
-47 3 -21 -2 -33 -16 -33 -8 0 -22 -12 -32 -26 -10 -14 -34 -42 -53 -61 -19
-20 -29 -33 -22 -29 6 4 12 2 12 -3 0 -6 -7 -11 -15 -11 -10 0 -15 -10 -15
-29 0 -17 -5 -33 -12 -37 -8 -5 -9 -2 -4 12 8 22 7 21 -33 -30 -37 -46 -39
-41 -9 17 12 23 28 55 35 71 12 25 11 27 -2 16 -27 -23 -16 7 16 41 16 17 34
40 40 51 5 10 17 18 25 18 8 0 12 5 9 10 -3 6 2 13 12 17 27 9 64 45 74 72 5
13 12 21 16 18 3 -4 24 11 46 33 21 22 41 40 43 40 2 0 4 -9 4 -20z m140 -382
c-4 -18 -11 -46 -14 -61 -4 -16 -11 -25 -17 -21 -7 4 -9 0 -6 -12 13 -47 18
-99 8 -84 -9 12 -11 10 -11 -11 0 -15 -7 -29 -15 -33 -8 -3 -15 -13 -14 -23 0
-16 2 -16 10 2 8 17 9 17 4 -5 -2 -14 -5 -38 -5 -54 0 -16 -3 -26 -7 -23 -3 4
-12 2 -20 -4 -10 -9 -13 -6 -13 13 0 14 5 40 11 57 8 21 8 40 2 54 -11 25 7
103 21 90 5 -4 3 2 -3 15 -10 19 -9 30 7 62 11 22 22 36 26 33 3 -4 13 3 22
15 21 30 24 28 14 -10z m169 -70 c24 -54 36 -118 21 -118 -5 0 -10 10 -11 23
0 21 -1 21 -8 2 -4 -11 -4 -35 0 -54 5 -21 3 -43 -3 -55 -11 -20 -11 -20 -21
2 -8 17 -7 26 0 30 8 5 7 16 -2 37 l-13 30 -1 -33 c-1 -18 -5 -31 -10 -28 -13
8 -21 -18 -14 -46 3 -17 2 -19 -5 -9 -8 11 -12 2 -17 -35 -9 -72 -12 -82 -15
-49 -4 67 -14 68 -48 3 -19 -35 -31 -52 -28 -38 4 14 9 44 12 68 4 23 10 42
15 42 9 0 23 54 24 90 0 21 4 25 28 22 23 -2 27 1 29 25 0 15 2 34 2 42 1 8 7
16 14 19 7 2 11 -1 10 -6 -2 -6 2 -10 7 -11 6 -1 10 7 10 17 0 9 -4 17 -10 17
-5 0 -15 4 -22 8 -7 4 -16 0 -22 -10 -12 -20 -14 -13 -5 11 3 9 15 16 25 16
11 0 22 7 25 15 9 22 12 19 33 -27z m1341 -1089 c0 -5 10 -19 22 -31 20 -20
21 -20 16 -2 -4 16 0 20 22 22 22 2 30 -4 43 -35 14 -30 17 -91 8 -121 -1 -2
-8 4 -17 13 -9 9 -19 13 -23 9 -3 -4 0 -9 7 -11 6 -3 12 -10 12 -18 0 -7 10
-19 23 -28 12 -8 19 -18 15 -22 -8 -8 -48 26 -48 41 0 7 -10 14 -22 18 -16 4
-30 23 -45 58 -27 62 -40 134 -24 123 6 -3 11 -10 11 -16z m-165 -203 c3 -33
8 -63 11 -68 3 -4 1 -8 -4 -8 -5 0 -15 14 -22 30 -16 38 -24 32 -15 -9 3 -16
14 -33 24 -36 12 -4 17 -18 19 -57 1 -28 6 -56 11 -62 6 -7 6 -18 1 -26 -4 -7
-4 -24 1 -37 14 -39 10 -51 -6 -15 -8 18 -17 65 -21 105 -3 39 -11 77 -16 82
-7 7 -8 -33 -4 -120 5 -89 3 -125 -3 -115 -6 8 -10 31 -9 52 1 20 -7 53 -16
73 -20 41 -32 42 -16 1 13 -34 13 -119 1 -111 -5 3 -9 27 -9 53 1 59 -17 145
-31 150 -5 2 -7 10 -4 18 4 11 9 9 18 -10 8 -14 16 -33 19 -43 3 -10 3 -4 0
12 -9 58 -4 174 9 182 6 3 7 2 4 -4 -8 -13 19 -51 29 -41 3 4 7 26 7 49 0 57
14 28 22 -45z m-535 -54 c0 -7 -4 -10 -10 -7 -5 3 -10 2 -10 -3 0 -6 7 -13 16
-16 9 -4 12 -11 7 -18 -4 -7 -6 -20 -5 -30 2 -9 -2 -20 -9 -24 -7 -4 -10 -3
-7 2 3 5 -1 16 -10 24 -14 13 -15 12 -8 -5 18 -44 24 -90 20 -163 -2 -42 -1
-68 2 -57 3 11 10 36 16 55 11 34 12 34 19 10 4 -17 7 -6 7 35 1 75 6 105 19
113 5 4 16 22 24 40 19 43 33 41 24 -5 -4 -21 -9 -56 -11 -78 -2 -22 -6 -65
-10 -95 -3 -30 -6 -70 -7 -87 0 -18 -3 -33 -7 -33 -10 0 -10 -88 0 -112 5 -13
9 -17 9 -10 2 29 16 9 17 -23 0 -19 -3 -35 -8 -35 -4 0 -8 5 -8 11 0 5 -5 7
-11 3 -8 -4 -3 -12 12 -20 21 -12 14 -20 -13 -15 -5 0 -8 -8 -8 -19 0 -11 5
-20 11 -20 8 0 8 -5 -1 -15 -17 -20 -31 -9 -26 21 3 16 -2 32 -14 44 -17 17
-19 30 -15 110 3 50 8 96 11 102 4 6 1 9 -7 6 -13 -4 -16 -34 -20 -170 0 -19
-6 -28 -17 -28 -11 0 -13 -3 -6 -8 6 -4 14 -27 18 -51 6 -39 5 -43 -9 -31 -10
8 -13 20 -9 33 5 16 3 19 -10 14 -10 -4 -16 -1 -16 9 0 8 -4 12 -10 9 -5 -3
-10 -1 -10 4 0 6 6 11 13 11 8 0 13 15 14 43 0 23 3 88 5 145 3 96 -2 123 -16
86 -3 -8 -10 -12 -16 -9 -6 4 -8 -7 -5 -29 2 -21 0 -36 -6 -36 -6 0 -10 -17
-8 -37 1 -21 1 -51 -1 -68 l-2 -30 -10 35 c-11 39 -8 43 -43 -55 -9 -27 -19
-61 -20 -75 -1 -14 -8 -38 -14 -54 -7 -16 -10 -35 -7 -43 6 -15 4 -15 -18 -7
-8 3 -12 13 -9 22 4 14 3 15 -5 2 -6 -8 -8 -18 -5 -24 10 -15 9 -66 -1 -66 -4
0 -6 -12 -3 -27 4 -19 -1 -35 -12 -48 -23 -25 -51 -98 -51 -130 0 -13 -4 -26
-9 -29 -9 -6 -25 -64 -22 -83 1 -7 -2 -13 -7 -13 -11 0 -42 -65 -42 -88 0 -9
-9 -42 -20 -72 -11 -30 -20 -56 -20 -58 0 -2 -4 -1 -10 3 -5 3 -6 13 -3 22 4
11 3 14 -5 9 -18 -11 -14 12 7 42 24 33 36 96 16 89 -7 -3 -18 0 -24 6 -7 7
-7 2 1 -20 14 -39 4 -71 -17 -53 -11 9 -12 17 -4 31 6 12 6 19 0 19 -5 0 -12
-6 -15 -12 -15 -32 8 54 28 107 13 33 27 78 30 100 l6 40 -16 -28 c-22 -40
-28 -27 -10 18 9 21 16 43 15 49 0 6 -5 0 -10 -14 -7 -18 -12 -21 -18 -12 -6
10 -12 4 -21 -18 -17 -40 -30 -47 -30 -15 0 14 9 33 20 42 20 18 28 39 10 28
-12 -7 -12 -3 -4 19 3 9 11 13 17 9 6 -3 7 -1 3 5 -4 7 -10 12 -14 12 -15 0
-35 -67 -37 -125 -1 -35 -6 -68 -9 -74 -4 -6 -1 -11 6 -11 9 0 9 -3 2 -8 -6
-4 -14 -27 -17 -51 -5 -40 -37 -94 -37 -63 0 7 4 12 10 12 5 0 9 3 8 8 -2 9
12 120 19 141 3 12 1 12 -11 -3 -14 -17 -15 -16 -14 13 1 19 6 31 15 31 13 0
14 8 18 98 2 48 -16 53 -22 6 -4 -30 -53 -174 -60 -174 -7 0 9 95 17 100 4 3
10 22 14 44 6 33 5 38 -9 32 -10 -3 -14 -2 -10 5 4 6 13 8 20 5 8 -3 18 7 25
25 7 16 16 26 21 23 13 -7 52 33 44 45 -3 6 -1 11 4 11 6 0 11 6 11 13 0 23
68 148 75 137 5 -8 11 -7 21 1 12 10 13 9 8 -5 -3 -9 -3 -16 1 -16 13 0 44 45
45 63 0 11 8 21 19 24 10 2 24 16 30 29 15 34 14 42 -4 18 -13 -17 -14 -17
-15 -2 0 10 8 25 19 35 10 10 22 34 26 53 4 19 17 54 28 78 11 24 20 57 21 73
1 16 7 29 14 29 6 0 12 7 12 15 0 17 40 97 53 106 5 4 7 11 3 17 -3 5 1 13 10
16 12 4 15 2 10 -9 -3 -8 -9 -22 -12 -30 -4 -10 0 -13 15 -10 12 2 21 0 21 -6
0 -5 -7 -9 -15 -9 -9 0 -14 -10 -14 -27 0 -45 -4 -63 -13 -63 -5 0 -6 10 -3
23 5 17 4 19 -4 7 -17 -24 -13 -57 8 -63 15 -3 21 2 27 22 4 14 6 32 5 40 -1
7 2 10 8 6 6 -3 11 -2 11 4 0 5 -6 11 -12 14 -10 4 -10 7 0 18 6 7 12 26 12
42 0 21 4 28 14 24 10 -4 13 -1 9 9 -3 7 -9 14 -14 14 -4 0 -6 6 -3 13 6 17
44 16 44 -1z m-490 -119 c-1 -19 -68 -132 -74 -126 -4 4 -4 0 0 -10 3 -9 1
-17 -5 -17 -6 0 -8 -7 -5 -15 4 -8 -1 -17 -10 -21 -12 -5 -14 -10 -6 -19 7 -8
7 -15 1 -19 -5 -3 -12 0 -15 6 -4 7 -4 3 -2 -10 2 -12 1 -20 -3 -17 -5 2 -13
-7 -19 -20 -7 -14 -20 -25 -29 -25 -15 0 -16 2 -3 10 13 8 12 10 -4 10 -13 0
-16 4 -10 18 4 9 8 31 8 47 1 17 4 35 9 40 28 37 67 102 67 114 0 8 7 11 20 8
14 -4 24 2 32 16 15 30 49 50 48 30z m815 -53 c10 -11 15 -23 12 -26 -4 -4
-10 1 -14 11 -6 18 -7 18 -14 -1 -14 -35 -10 -74 7 -74 10 0 14 -6 11 -14 -3
-8 -2 -40 2 -72 6 -45 5 -61 -6 -72 -18 -18 -20 -16 -42 48 -10 29 -22 47 -25
41 -4 -6 -5 -15 -1 -20 3 -5 -2 -16 -11 -25 -18 -18 -23 -90 -11 -151 6 -29 6
-36 -2 -25 -6 9 -11 10 -11 3 0 -6 -3 -19 -7 -29 -4 -12 -3 -15 5 -10 8 5 12
0 12 -13 0 -10 3 -28 7 -38 6 -16 5 -16 -10 -4 -21 17 -35 69 -40 141 -1 31
-6 61 -10 67 -10 16 -20 219 -10 209 9 -9 10 -12 13 -68 l2 -43 15 62 c9 34
20 60 24 57 5 -3 9 0 9 5 0 6 -7 11 -15 11 -17 0 -19 9 -7 28 5 7 16 10 26 6
15 -6 17 -16 14 -61 -5 -53 3 -75 18 -51 6 9 10 5 15 -12 6 -20 7 -17 8 17 1
48 -7 75 -20 67 -5 -3 -9 0 -9 7 0 6 8 9 18 7 15 -4 18 0 16 18 -3 29 7 30 31
4z m-732 -80 c-3 -11 -9 -20 -14 -20 -5 0 -9 -7 -9 -16 0 -8 4 -13 9 -10 5 4
7 -4 3 -16 -4 -15 -2 -19 8 -13 8 5 11 3 8 -6 -3 -8 -15 -15 -27 -17 -20 -3
-21 -1 -12 17 13 24 14 31 2 31 -5 0 -12 -11 -15 -25 -7 -28 -5 -41 7 -37 4 1
7 -3 7 -9 0 -5 5 -7 10 -4 6 3 10 2 10 -3 0 -6 -7 -13 -16 -16 -9 -4 -14 -9
-11 -13 4 -3 2 -14 -4 -25 -9 -17 -14 -41 -18 -87 -1 -9 -5 -10 -13 -3 -14 11
-43 -10 -31 -22 4 -3 -2 -16 -13 -28 -18 -20 -18 -21 0 -15 12 5 17 3 13 -5
-42 -109 -93 -217 -95 -204 -2 9 3 27 10 39 20 31 29 57 19 57 -5 0 -18 -24
-30 -52 -20 -47 -20 -54 -6 -64 14 -10 13 -13 -2 -25 -14 -12 -16 -12 -8 0 5
9 4 12 -3 7 -6 -4 -9 -13 -5 -21 3 -8 1 -15 -5 -15 -6 0 -14 -15 -17 -32 -8
-38 -23 -60 -36 -52 -5 3 -6 -3 -2 -12 5 -13 3 -15 -7 -9 -9 6 -12 4 -8 -6 3
-8 -4 -23 -15 -34 l-20 -20 8 20 c4 11 10 29 13 40 2 11 8 25 12 30 4 6 10 27
14 48 4 21 11 35 16 32 5 -3 5 7 0 24 -6 22 -4 33 6 41 7 7 13 15 11 18 -1 4
7 31 18 60 15 42 21 49 27 35 5 -11 6 -5 3 17 -2 19 0 42 6 50 8 12 9 10 4 -7
-3 -13 -3 -23 2 -23 12 0 63 112 63 138 0 12 6 38 14 57 8 18 12 36 8 39 -3 3
4 6 16 6 11 0 24 5 27 11 11 16 -4 59 -20 59 -20 0 -19 14 2 31 13 11 15 11 9
1 -7 -11 -4 -11 13 0 12 7 21 19 21 26 0 7 7 15 15 18 8 4 15 12 15 20 0 8 4
14 9 14 5 0 7 -9 4 -20z m9754 -2547 c23 -31 33 -37 58 -35 26 2 34 -3 58 -41
31 -50 33 -60 13 -77 -12 -9 -21 -2 -52 45 l-38 56 -24 -30 c-13 -17 -29 -31
-36 -31 -15 0 -86 94 -86 114 0 18 27 35 57 36 15 0 33 -13 50 -37z m1899 -79
c26 -9 53 -22 61 -29 7 -7 18 -15 25 -17 27 -9 -29 -128 -60 -128 -6 0 -9 7
-6 15 4 8 2 15 -4 15 -6 0 -12 -6 -15 -12 -3 -10 -7 -10 -20 0 -9 8 -25 11
-37 7 -14 -4 -20 -2 -20 8 0 8 -9 17 -20 20 -12 3 -20 14 -20 27 0 17 4 21 18
16 12 -4 11 -1 -5 13 -29 24 -31 46 -4 31 28 -14 31 -13 31 13 0 42 9 44 76
21z m-1431 -244 c3 -5 1 -10 -4 -10 -14 0 -14 -31 0 -50 9 -12 10 -11 6 8 -6
27 13 30 20 2 3 -11 12 -20 20 -20 8 0 11 -5 8 -10 -4 -6 -2 -17 5 -25 9 -11
7 -16 -9 -25 -30 -16 -107 6 -131 38 -22 28 -26 72 -8 90 15 15 84 16 93 2z
m2041 -687 c8 -11 13 -13 14 -5 0 6 9 12 20 12 11 0 19 -5 18 -11 -2 -6 3 -14
11 -17 9 -3 11 0 7 9 -4 8 2 3 13 -10 12 -13 21 -34 21 -48 0 -20 4 -24 19
-20 26 7 56 -24 39 -41 -13 -13 -14 -13 27 -17 17 -1 33 -3 37 -4 14 -2 50
-93 45 -112 -3 -12 -1 -33 4 -47 12 -30 -9 -59 -35 -49 -12 5 -16 21 -16 65 0
52 -3 61 -30 87 -32 31 -49 33 -143 19 l-39 -6 2 48 c3 76 1 104 -7 102 -14
-4 -63 34 -63 48 0 20 40 17 56 -3z m175 -226 c23 -17 35 -137 15 -137 -8 0
-21 9 -30 21 -16 24 -64 51 -76 44 -4 -3 -20 11 -35 31 -21 28 -25 38 -15 44
21 13 123 10 141 -3z m-11219 -701 c-3 -12 -10 -24 -16 -28 -8 -6 -7 -11 3
-17 11 -7 11 -25 1 -102 -10 -84 -38 -194 -47 -185 -2 1 4 70 12 152 18 176
17 167 6 160 -5 -3 -7 -15 -4 -26 3 -11 0 -20 -6 -20 -6 0 -11 5 -11 11 0 6
-6 9 -14 6 -11 -4 -13 1 -10 19 4 22 3 23 -15 12 -11 -6 -17 -18 -13 -26 4
-11 1 -13 -8 -7 -9 6 -11 4 -5 -5 4 -7 2 -16 -6 -21 -10 -6 -8 -9 9 -9 23 0
23 0 -4 -25 -31 -29 -44 -32 -44 -9 0 9 5 12 12 8 6 -4 8 -3 4 4 -21 34 45
175 74 157 5 -3 13 1 16 9 3 9 14 16 24 16 11 0 22 6 27 13 10 15 22 -57 15
-87z m-737 -193 c-1 -27 -3 -52 -5 -58 -1 -5 -2 -23 -1 -40 2 -29 3 -29 13 -7
6 12 18 21 27 20 19 -4 41 -30 34 -41 -3 -5 -11 0 -18 9 -12 16 -13 16 -24 -5
-7 -12 -11 -29 -10 -39 1 -9 -8 -37 -19 -62 -23 -48 -52 -90 -52 -75 0 5 -7 0
-15 -11 -13 -16 -14 -16 -9 -1 3 9 4 17 0 17 -9 0 -36 -57 -30 -63 3 -3 1 -14
-5 -24 -8 -14 -10 -14 -11 -3 0 13 -1 13 -10 0 -13 -20 -13 -43 0 -35 6 4 10
-7 10 -24 0 -17 4 -31 10 -31 5 0 7 16 5 35 -4 26 -1 35 10 35 8 0 15 7 15 16
0 11 6 14 23 8 27 -8 23 -2 30 -49 4 -22 2 -47 -4 -55 -7 -11 -8 -7 -3 13 6
27 5 28 -14 16 -11 -7 -18 -18 -15 -25 5 -13 -34 -132 -49 -149 -5 -5 -4 4 2
20 11 28 10 29 -6 13 -15 -15 -16 -21 -5 -44 13 -29 1 -54 -25 -54 -8 0 -13
-3 -12 -7 4 -14 -15 -58 -35 -83 -19 -24 -19 -24 -13 -2 4 12 3 22 -2 22 -5 0
-13 -10 -16 -22 -7 -22 -7 -22 -16 -3 -11 26 -12 44 -1 27 7 -11 9 -11 14 2 4
9 2 16 -3 16 -5 0 -5 13 1 30 6 17 14 30 18 30 4 0 6 21 6 48 -2 57 11 110 33
136 10 11 11 16 5 12 -17 -10 -16 6 2 30 8 10 14 24 15 29 0 6 -5 3 -11 -5 -7
-11 -8 -3 -4 30 10 71 16 85 26 69 13 -21 4 63 -9 87 -6 10 -12 15 -12 9 -1
-5 -3 -23 -5 -40 -6 -56 -26 -169 -46 -250 -10 -44 -20 -100 -22 -125 -2 -25
-12 -65 -21 -90 -9 -24 -14 -50 -11 -58 2 -7 1 -11 -4 -8 -5 3 -15 -14 -24
-39 -13 -40 -13 -44 0 -33 9 7 19 21 24 33 6 13 7 2 3 -30 -4 -27 -10 -51 -13
-53 -3 -1 -4 -23 -2 -48 2 -28 -2 -50 -9 -57 -10 -9 -11 -9 -5 2 6 10 4 12 -4
6 -7 -4 -11 -16 -8 -26 3 -11 0 -19 -6 -20 -9 0 -9 -2 0 -5 8 -4 6 -11 -7 -24
-14 -14 -18 -28 -14 -49 4 -16 1 -31 -5 -35 -6 -4 -11 -16 -11 -27 0 -22 -10
-24 -29 -6 -11 10 -11 8 -2 -10 13 -27 14 -36 2 -28 -10 5 -35 -30 -36 -49 0
-21 -25 -16 -30 6 -9 34 1 126 14 142 9 10 8 15 -4 20 -15 5 -14 9 4 32 22 28
27 54 11 54 -5 0 -10 -4 -10 -10 0 -5 -5 -10 -11 -10 -7 0 -8 7 -4 18 14 33
23 107 14 129 -4 12 -4 35 1 52 6 20 5 31 -3 34 -7 2 -2 24 16 64 15 33 27 66
27 72 0 7 14 41 30 76 17 35 30 70 30 78 0 7 5 18 10 23 6 6 12 57 15 115 3
57 9 120 14 139 17 67 60 145 100 184 l41 39 0 -42 c0 -25 4 -40 10 -36 5 3 7
19 3 35 -3 18 0 36 7 45 15 18 33 9 26 -13 -3 -10 -8 -33 -11 -52 -2 -19 -8
-48 -11 -65 -6 -29 -5 -29 15 7 12 21 21 49 21 64 0 14 4 23 10 19 6 -4 8 -11
5 -16 -4 -5 -1 -9 5 -9 6 0 8 14 4 38 -6 43 9 92 30 92 7 0 19 7 26 15 7 8 13
15 15 15 1 0 1 -21 0 -47z m1334 7 c9 0 22 -5 29 -12 9 -9 12 -9 12 0 0 7 -4
12 -8 12 -5 0 -9 7 -9 15 0 8 8 15 17 15 29 0 80 -21 80 -33 0 -8 3 -7 9 1 9
15 43 13 41 -1 -1 -5 9 -17 22 -28 49 -41 68 -61 63 -69 -2 -4 6 -12 19 -18
23 -10 25 -8 34 36 l10 47 1 -38 c1 -28 4 -36 14 -31 7 5 6 0 -3 -11 -9 -11
-10 -16 -2 -11 15 9 16 -6 0 -22 -9 -9 -8 -28 1 -81 7 -39 10 -75 6 -81 -4 -6
9 -10 34 -10 23 0 41 -3 41 -8 0 -4 -18 -6 -40 -4 -31 3 -39 1 -35 -9 3 -8 -4
-20 -15 -27 -16 -10 -20 -10 -20 2 0 24 -51 26 -72 2 l-19 -21 4 26 c3 25 0
27 -72 43 -42 10 -88 19 -103 20 -15 2 -34 9 -42 15 -11 9 -15 9 -19 -1 -7
-20 -34 10 -42 47 -5 20 -4 26 3 16 12 -17 23 1 11 19 -12 20 -11 33 2 24 8
-4 9 1 4 17 -5 18 -4 20 4 9 6 -8 8 -25 4 -37 -3 -16 -1 -23 9 -23 12 0 13 9
7 48 -4 26 -5 65 -2 86 5 35 4 39 -12 33 -12 -5 -16 -3 -12 7 3 7 1 18 -5 24
-6 6 -8 18 -4 27 5 15 7 15 22 1 8 -9 23 -16 33 -16z m168 -609 c-15 -30 -15
-31 6 -31 12 0 51 6 87 14 93 19 219 1 191 -27 -21 -21 -11 -25 21 -10 20 10
33 12 35 6 5 -14 56 -3 66 13 4 8 13 14 18 14 6 0 8 -3 6 -7 -3 -5 38 -8 91
-7 54 0 102 -4 109 -8 6 -5 29 -10 50 -11 67 -2 44 -23 -64 -57 -100 -31 -135
-50 -94 -50 12 0 21 5 21 11 0 6 6 9 13 6 12 -4 140 21 200 39 9 3 17 1 17 -3
0 -5 -28 -15 -62 -22 -35 -8 -67 -17 -73 -21 -5 -3 -29 -12 -53 -19 -24 -7
-62 -23 -85 -35 -23 -13 -87 -36 -142 -51 -55 -15 -108 -31 -117 -36 -10 -5
-26 -9 -35 -9 -22 0 -103 -33 -103 -42 0 -7 11 -4 100 25 25 8 65 19 90 25 40
9 43 9 26 -4 -11 -8 -25 -14 -32 -14 -7 0 -15 -4 -19 -9 -3 -6 8 -6 27 0 18 6
42 12 53 14 11 3 29 9 40 14 11 5 38 17 60 26 22 9 59 26 81 37 23 12 49 18
58 15 10 -4 15 -3 11 3 -3 6 -1 10 4 10 6 0 11 -4 11 -10 0 -16 18 -12 37 9
22 23 63 37 63 22 0 -20 19 -11 35 17 9 15 14 19 11 9 -5 -15 -1 -16 22 -10
15 4 44 7 64 7 20 0 34 4 32 8 -2 4 10 7 28 7 18 0 97 1 176 2 86 0 142 4 142
10 0 6 3 8 8 6 4 -3 83 -8 177 -12 93 -4 181 -11 195 -15 15 -4 43 -7 63 -5
20 1 34 -1 32 -5 -3 -4 12 -8 33 -8 64 0 131 -8 138 -15 4 -4 17 -7 30 -7 33
0 55 -11 47 -24 -3 -6 -3 -8 2 -4 4 4 15 2 23 -5 13 -10 15 -9 9 6 -5 12 -2
17 11 16 23 -1 70 -17 55 -18 -7 -1 -10 -7 -7 -15 3 -8 13 -12 23 -9 14 3 20
-3 25 -28 5 -25 9 -30 18 -21 8 8 15 9 25 1 19 -17 16 -35 -7 -36 -11 -1 -20
3 -20 9 0 6 -3 8 -6 5 -11 -11 18 -38 35 -32 13 4 16 -4 18 -43 1 -36 0 -42
-7 -24 -5 12 -14 22 -20 22 -6 0 -8 -10 -5 -22 11 -48 12 -93 3 -105 -8 -9 -6
-13 6 -13 11 0 16 -9 16 -30 0 -16 5 -30 11 -30 6 0 9 9 6 20 -3 11 -1 23 4
26 5 3 9 -11 9 -30 0 -35 20 -53 20 -18 1 19 23 52 35 52 4 0 0 -12 -10 -26
-9 -14 -14 -29 -10 -32 3 -4 10 -1 14 6 4 8 15 10 27 6 16 -6 17 -5 7 7 -18
18 -16 29 3 29 14 0 16 -7 11 -39 -4 -32 -2 -38 8 -28 7 7 11 15 8 20 -2 4 0
7 5 7 16 0 23 -30 12 -51 -7 -13 -7 -19 0 -19 5 0 10 8 10 17 0 14 3 13 20 -5
25 -27 31 -28 24 -4 -5 14 -3 14 11 -3 13 -16 17 -17 24 -6 11 17 23 -2 15
-23 -4 -10 -1 -16 7 -16 10 -1 10 -4 -3 -13 -18 -14 -14 -63 6 -70 9 -4 11 3
8 19 -2 13 0 24 7 24 5 0 8 -6 5 -14 -3 -9 3 -17 16 -21 12 -4 19 -9 17 -12
-3 -2 -1 -18 3 -34 10 -35 4 -59 -16 -59 -14 0 -18 -15 -16 -60 1 -21 -1 -19
-12 10 l-13 35 -7 -33 c-4 -18 -12 -30 -17 -26 -5 3 -12 -2 -15 -10 -3 -9 -10
-13 -15 -10 -5 3 -9 2 -8 -3 4 -24 -2 -53 -12 -53 -5 0 -7 5 -4 10 3 6 1 10
-4 10 -6 0 -11 -12 -11 -26 0 -20 -4 -25 -16 -20 -9 3 -20 6 -25 6 -5 0 -9 8
-10 18 0 14 -2 14 -8 -3 -9 -23 -71 -29 -71 -7 0 7 -5 10 -10 7 -6 -4 -17 -1
-25 5 -12 10 -15 9 -15 -5 0 -17 -1 -17 -18 -2 -14 13 -21 14 -30 5 -15 -15
-132 -22 -132 -7 0 5 5 7 10 4 6 -3 10 1 10 9 0 10 -9 16 -25 16 -25 0 -66 35
-64 54 4 38 -1 47 -22 35 -19 -10 -20 -9 -14 11 5 16 4 20 -4 16 -6 -4 -36 -7
-66 -7 -36 0 -55 -5 -55 -12 0 -8 -3 -7 -9 2 -5 7 -14 10 -20 7 -6 -4 -11 -2
-11 5 0 8 -4 8 -15 -1 -11 -9 -15 -9 -15 -1 0 9 -5 9 -20 1 -22 -12 -33 2 -45
60 -5 19 -10 29 -12 23 -6 -16 -55 -17 -70 -2 -18 18 -58 7 -61 -18 -3 -17
-12 -24 -39 -29 -19 -4 -48 -20 -64 -35 -16 -16 -37 -29 -45 -29 -8 0 -32 -11
-52 -25 -20 -14 -40 -25 -45 -25 -4 0 -18 -9 -29 -20 -13 -12 -29 -18 -40 -14
-11 3 -20 -1 -24 -10 -3 -9 -11 -16 -18 -16 -6 0 -27 -13 -46 -28 -48 -40 -76
-53 -117 -57 -19 -2 -45 -13 -57 -24 -12 -12 -28 -21 -36 -21 -7 0 -22 -8 -33
-17 -18 -17 -19 -17 -28 0 -6 9 -15 17 -20 17 -6 0 -7 -5 -3 -12 5 -7 3 -8 -5
-4 -7 5 -10 14 -7 22 10 25 -14 15 -26 -11 -13 -28 -34 -35 -23 -7 4 9 10 25
13 35 3 13 12 17 27 14 16 -3 22 0 18 10 -6 16 -18 17 -44 3 -15 -9 -19 -7
-19 7 0 14 -5 12 -25 -11 -14 -16 -25 -25 -25 -20 0 6 5 15 11 21 9 9 5 14
-17 19 -16 4 -38 7 -49 6 -11 0 -22 4 -26 10 -4 7 -14 8 -25 3 -22 -9 -30 -12
-44 -14 -5 0 -10 -8 -10 -17 0 -8 -5 -12 -10 -9 -6 4 -17 1 -25 -5 -8 -7 -15
-9 -15 -5 0 3 -12 -7 -26 -24 -14 -17 -33 -31 -41 -31 -9 0 -13 -6 -9 -15 5
-14 -9 -20 -42 -16 -7 1 -15 -5 -18 -14 -3 -8 -12 -15 -19 -15 -7 0 -15 -13
-18 -28 -5 -24 -10 -28 -41 -28 -22 0 -42 -7 -53 -20 -10 -11 -24 -20 -32 -19
-8 0 -28 -13 -45 -28 -16 -16 -50 -39 -75 -52 -42 -21 -94 -69 -165 -149 -14
-16 -26 -24 -26 -18 0 6 -7 9 -15 6 -8 -4 -15 -12 -15 -19 0 -7 -12 -16 -26
-19 -20 -5 -25 -12 -21 -26 3 -11 1 -20 -3 -20 -5 0 -12 -9 -15 -20 -4 -11
-11 -18 -16 -15 -5 3 -7 0 -4 -7 3 -7 -8 -22 -25 -33 -16 -11 -30 -23 -30 -28
0 -4 -15 -24 -32 -43 -33 -35 -51 -77 -40 -89 3 -3 7 -14 9 -25 2 -14 -3 -20
-15 -20 -28 0 -102 -74 -92 -91 7 -11 12 -11 22 -1 17 17 54 17 40 0 -5 -7
-10 -24 -10 -38 0 -14 -7 -42 -16 -62 -14 -33 -21 -38 -49 -38 -50 0 -75 10
-93 37 -21 33 -20 82 2 124 9 19 23 66 30 104 10 51 35 112 94 228 45 86 79
161 76 166 -3 5 0 11 7 14 7 2 13 20 15 38 l2 34 -15 -25 c-9 -16 -15 -19 -15
-10 -1 9 -5 5 -11 -8 -5 -13 -13 -20 -19 -17 -5 3 -10 -1 -10 -9 0 -9 -4 -16
-10 -16 -5 0 -10 -8 -10 -19 0 -10 -9 -30 -20 -44 -11 -14 -20 -30 -20 -36 0
-6 -7 -11 -16 -11 -8 0 -13 -4 -10 -9 3 -5 -5 -24 -17 -42 -42 -61 -137 -222
-137 -231 0 -5 -11 -26 -25 -48 -14 -22 -22 -40 -18 -40 3 0 -3 -10 -15 -22
-33 -36 -44 -74 -26 -92 8 -8 14 -19 13 -23 -1 -4 0 -12 1 -18 11 -48 -2 -156
-23 -182 -15 -20 -72 -15 -102 9 -56 44 -65 119 -25 205 12 25 20 64 20 95 1
108 55 259 186 520 46 92 84 172 84 177 0 14 -33 1 -43 -16 -4 -7 -13 -13 -18
-13 -15 0 -32 -20 -52 -62 -10 -21 -25 -54 -35 -74 -9 -20 -29 -49 -44 -65
-14 -16 -24 -29 -22 -29 2 0 -21 -25 -51 -56 -30 -31 -54 -59 -53 -63 3 -13
-22 -61 -32 -61 -5 0 -10 -9 -10 -19 0 -11 -4 -23 -10 -26 -5 -3 4 -19 20 -35
17 -16 30 -35 31 -42 5 -62 -26 -156 -56 -170 -29 -13 -70 6 -99 45 -27 36
-25 99 4 164 28 62 41 103 31 103 -4 0 -3 26 2 58 6 31 10 95 11 142 1 58 7
97 18 124 10 21 15 42 12 47 -3 5 0 9 5 9 6 0 11 10 11 23 0 38 38 147 65 188
14 22 28 54 32 72 15 77 142 287 231 379 30 32 64 70 75 86 20 27 119 108 181
146 17 11 77 41 134 67 79 36 99 49 84 53 -11 4 -33 4 -49 0 -25 -7 -26 -6
-13 9 29 31 41 47 36 47 -9 0 -105 -68 -101 -72 2 -2 -9 -9 -26 -15 l-31 -12
16 24 c20 30 20 41 1 25 -8 -6 -19 -9 -25 -5 -14 9 -59 -35 -53 -51 2 -7 -5
-17 -16 -23 -28 -15 -69 22 -80 71 -16 69 26 113 154 165 87 35 142 53 161 53
12 0 41 14 65 32 24 17 38 24 30 15 -11 -15 -11 -17 1 -17 17 0 89 68 127 119
28 39 39 34 18 -8z m4965 -39 c14 -95 33 -109 95 -71 110 68 217 29 285 -105
32 -63 108 -347 108 -403 0 -18 -4 -33 -10 -33 -5 0 -10 10 -10 23 0 40 -12
70 -21 55 -13 -21 -24 0 -49 95 -15 58 -28 87 -37 87 -8 0 -12 4 -8 10 9 15
-6 60 -21 60 -17 0 -18 17 -1 23 6 2 8 8 4 13 -4 5 -12 3 -16 -4 -10 -16 -41
-5 -41 15 0 9 6 13 15 10 8 -4 17 -2 21 4 3 6 -3 13 -15 16 -12 3 -21 10 -21
15 0 6 -7 8 -15 4 -10 -3 -17 3 -21 19 -5 19 -13 25 -35 25 -19 0 -29 5 -29
15 0 9 -7 18 -16 22 -12 4 -13 8 -3 13 7 5 1 7 -14 7 -16 -1 -27 -8 -28 -17 0
-10 -3 -8 -9 5 -5 11 -9 15 -9 9 -1 -16 -82 -45 -107 -38 -65 17 -86 191 -21
182 18 -2 23 -12 29 -56z m-2366 -131 c27 -16 32 -25 32 -60 1 -29 -3 -39 -11
-34 -9 5 -9 3 0 -8 6 -8 10 -24 9 -34 -2 -11 1 -31 6 -45 13 -34 13 -124 -2
-209 -6 -39 -9 -74 -6 -79 3 -5 1 -24 -4 -42 -5 -18 -12 -52 -15 -74 -4 -23
-16 -72 -28 -111 -12 -38 -22 -72 -22 -75 -15 -73 -40 -172 -50 -195 -7 -16
-20 -48 -30 -70 -24 -60 -62 -110 -106 -141 -35 -24 -45 -26 -95 -21 -110 11
-98 47 15 47 88 0 94 3 135 85 30 62 77 215 81 270 4 47 9 73 19 97 4 9 5 22
1 27 -3 7 0 8 9 5 11 -4 16 0 17 12 1 11 3 28 5 39 1 11 5 40 9 65 3 25 12 94
20 154 8 60 13 112 11 115 -3 4 -7 27 -11 51 -6 49 -32 146 -44 170 -20 39
-122 10 -175 -49 -19 -21 -56 -29 -56 -12 0 15 127 125 152 133 45 12 103 8
134 -11z m2386 -101 c14 -16 23 -31 21 -34 -9 -9 38 -17 60 -10 22 7 22 6 4
-14 -11 -11 -25 -18 -33 -15 -10 4 -9 -8 6 -53 11 -32 18 -65 15 -75 -3 -9 -1
-28 4 -43 6 -14 8 -31 6 -38 -7 -18 -54 -38 -72 -31 -14 5 -15 1 -10 -26 8
-41 -17 -165 -50 -248 -26 -64 -35 -73 -57 -50 -24 24 -26 66 -6 162 21 104
17 129 -20 130 -17 0 -28 18 -61 93 -47 110 -84 169 -110 177 -42 14 -8 49 64
69 167 46 203 47 239 6z m-2008 -124 c96 -47 127 -59 223 -90 102 -32 114 -32
171 1 36 22 58 27 106 27 76 0 96 -6 108 -29 9 -15 8 -17 -10 -13 -12 3 -23 0
-25 -7 -3 -6 -19 -11 -36 -10 -31 2 -41 -8 -21 -20 15 -9 12 -25 -3 -19 -7 2
-22 -5 -32 -16 -15 -17 -16 -20 -3 -15 13 5 15 2 11 -14 -3 -14 -13 -21 -29
-21 -15 0 -24 -6 -24 -16 0 -8 -4 -12 -10 -9 -5 3 -10 1 -10 -4 0 -19 -17 -12
-28 12 -9 18 -11 19 -11 4 -1 -10 -5 -16 -11 -12 -5 3 -7 12 -4 19 7 18 -27
30 -38 14 -6 -8 -7 -2 -3 17 5 26 1 33 -25 48 -18 11 -30 14 -30 7 0 -6 -12
-2 -26 9 -15 12 -33 21 -41 21 -8 0 -23 9 -35 20 -12 11 -24 17 -27 14 -3 -3
1 -9 8 -13 9 -6 10 -11 2 -15 -6 -4 -16 2 -23 14 -16 24 -31 26 -49 3 -13 -15
-12 -16 9 -11 15 4 22 2 19 -5 -6 -18 -47 -15 -58 5 -5 10 -20 18 -32 18 -29
0 -55 38 -32 46 28 11 5 22 -35 18 -24 -3 -40 -1 -40 6 0 5 7 10 15 10 8 0 15
5 15 10 0 6 -4 10 -10 10 -5 0 -10 5 -10 10 0 15 7 13 84 -24z m-4616 -408 c0
-17 7 -35 14 -39 10 -7 10 -9 1 -9 -15 0 -17 -52 -3 -66 10 -10 -7 -84 -23
-95 -4 -3 -7 -12 -5 -19 2 -8 -3 -15 -9 -16 -7 -1 -18 -2 -24 -3 -5 0 -7 -6
-3 -13 5 -8 2 -9 -9 -5 -14 5 -15 3 -5 -21 7 -15 16 -32 21 -39 5 -7 6 -17 3
-22 -4 -5 -2 -12 4 -16 17 -11 11 -25 -11 -25 -18 0 -19 -3 -9 -15 14 -17 4
-39 -16 -31 -8 3 -14 1 -14 -5 0 -6 -6 -7 -12 -3 -10 6 -10 4 0 -7 17 -18 15
-42 -2 -36 -10 4 -13 1 -9 -9 3 -9 -1 -14 -13 -14 -12 0 -15 -3 -7 -8 17 -11
-4 -35 -50 -57 -55 -26 -68 -9 -75 90 -4 71 -3 75 14 68 11 -4 25 -13 32 -20
7 -7 21 -13 30 -13 16 1 16 1 0 11 -25 14 -34 73 -14 100 l15 23 10 -25 10
-24 0 28 c1 16 -5 30 -14 33 -8 4 -12 11 -8 17 3 6 8 33 10 61 3 28 8 55 12
61 5 5 14 27 21 48 14 44 34 39 27 -7 l-6 -31 12 26 c7 15 23 37 37 49 14 12
19 19 13 15 -7 -3 -13 -1 -13 4 0 6 4 11 9 11 16 0 23 52 9 62 -10 7 -8 8 4 4
10 -3 20 -1 23 4 12 19 22 9 23 -22z"/>
<path d="M16810 12130 c0 -5 7 -10 15 -10 8 0 15 -6 15 -14 0 -8 -7 -16 -15
-20 -8 -3 -15 -12 -15 -21 0 -18 5 -19 32 -4 19 10 20 9 15 -11 -4 -18 -2 -21
12 -17 14 3 17 0 14 -14 -4 -14 -1 -18 8 -14 11 4 14 -3 13 -29 -1 -23 3 -37
13 -40 9 -4 13 -13 9 -23 -9 -22 14 -35 34 -20 8 6 6 1 -5 -11 -18 -22 -18
-24 -2 -33 9 -6 17 -15 17 -20 0 -6 -3 -8 -7 -6 -5 3 -8 -8 -8 -23 0 -15 3
-26 6 -24 9 5 21 -27 14 -34 -3 -3 -5 1 -5 9 0 11 -2 11 -10 -1 -15 -23 -13
-47 2 -32 18 18 23 15 23 -13 0 -14 -5 -25 -12 -25 -8 0 -9 -9 -3 -28 4 -16 4
-35 0 -43 -7 -12 -7 -36 -1 -72 0 -5 6 -5 11 -2 6 4 7 11 4 17 -4 7 -2 8 4 4
17 -10 15 -24 -8 -43 -11 -10 -20 -21 -20 -26 0 -5 7 -4 15 3 22 18 45 -4 45
-42 0 -25 3 -28 14 -19 11 9 13 6 10 -15 -2 -23 0 -25 22 -20 19 5 22 3 17
-11 -4 -11 -3 -14 6 -9 8 5 18 0 27 -12 8 -12 21 -19 29 -16 10 4 12 0 8 -15
-3 -12 -12 -21 -20 -21 -8 0 -11 -4 -8 -10 3 -5 19 -10 35 -10 15 0 30 -7 34
-15 3 -9 12 -12 22 -8 11 4 15 3 10 -5 -10 -16 10 -24 23 -8 7 8 26 14 44 13
l33 -1 -4 -53 c-3 -42 -1 -54 12 -59 9 -3 16 -10 16 -15 0 -4 -7 -6 -15 -3
-19 8 -19 -6 1 -34 15 -22 15 -24 -5 -29 -12 -3 -21 -12 -21 -19 0 -8 -7 -17
-15 -20 -12 -5 -13 -10 -4 -20 8 -10 7 -19 -5 -36 -9 -13 -19 -22 -21 -20 -3
1 -5 -1 -6 -5 0 -5 -5 -14 -11 -21 -6 -7 -8 -15 -4 -19 3 -3 6 -1 6 5 0 7 5
12 11 12 8 0 8 -4 -1 -14 -6 -8 -18 -12 -26 -9 -8 3 -23 -4 -33 -16 -22 -25
-31 -27 -31 -5 0 13 -5 12 -30 -6 -19 -13 -30 -17 -30 -9 0 8 -7 6 -20 -6 -10
-9 -26 -15 -34 -12 -11 5 -16 0 -15 -16 0 -12 -3 -33 -7 -46 -5 -17 -4 -22 4
-17 19 12 35 -3 21 -20 -9 -11 -7 -14 12 -15 13 0 19 -3 12 -5 -8 -4 -7 -14 5
-37 25 -46 37 -56 61 -50 12 3 21 1 21 -5 0 -6 10 -22 23 -35 55 -59 87 -107
87 -134 0 -15 5 -21 14 -17 17 6 30 -27 21 -55 -4 -12 0 -21 11 -25 13 -5 14
-9 4 -20 -7 -10 -8 -21 -2 -33 18 -35 4 -138 -21 -155 -13 -8 -22 -168 -10
-168 5 0 8 -15 7 -32 -1 -18 3 -36 9 -40 7 -4 10 -21 9 -38 -2 -18 1 -30 8
-30 7 0 10 -8 7 -20 -3 -11 -2 -20 3 -20 12 0 22 -32 12 -42 -11 -11 -3 -70 8
-63 5 3 8 -15 7 -40 -1 -25 -5 -45 -9 -45 -15 0 -8 -20 12 -37 26 -23 25 -31
-5 -45 -26 -12 -36 -34 -10 -24 18 7 20 -15 3 -32 -10 -10 -10 -17 0 -33 10
-16 10 -24 1 -35 -6 -7 -9 -25 -5 -38 4 -16 1 -26 -9 -30 -12 -4 -12 -9 0 -33
19 -35 19 -47 0 -63 -10 -8 -13 -21 -8 -39 4 -14 6 -34 5 -43 0 -10 3 -18 7
-18 11 0 23 -39 21 -67 -1 -16 4 -23 17 -23 15 0 14 -3 -6 -16 -21 -15 -21
-18 -7 -26 20 -11 21 -34 0 -42 -10 -4 -13 -13 -9 -25 4 -14 1 -19 -12 -17
-10 0 -18 -3 -19 -9 -2 -23 -17 -45 -30 -45 -16 0 -19 -26 -4 -35 8 -5 7 -12
-2 -23 -11 -13 -11 -15 4 -10 20 8 31 -1 19 -16 -9 -11 -11 -17 -11 -36 0 -5
-9 -10 -20 -10 -13 0 -18 -5 -13 -16 3 -8 11 -13 18 -10 15 6 27 -44 15 -60
-12 -14 26 -75 51 -81 15 -4 17 -8 8 -19 -9 -11 -7 -14 7 -14 11 0 15 -4 9 -8
-16 -12 -16 -32 0 -38 10 -4 15 -19 15 -43 0 -20 7 -47 17 -60 15 -23 15 -25
-3 -38 -19 -14 -19 -14 0 -25 15 -8 16 -12 5 -20 -12 -8 -12 -10 -1 -15 10 -4
7 -10 -9 -21 -21 -15 -21 -16 -3 -29 14 -10 15 -16 6 -25 -17 -17 -15 -31 3
-25 12 5 12 2 3 -19 -8 -17 -14 -21 -19 -12 -11 17 -23 -16 -15 -39 4 -10 4
-14 0 -10 -10 10 -33 -24 -34 -50 0 -12 7 -26 16 -31 11 -6 13 -11 5 -16 -6
-4 -11 -16 -11 -28 0 -15 5 -19 19 -15 11 3 26 -2 35 -12 17 -18 18 -31 5 -47
-7 -8 1 -14 25 -18 23 -5 36 -13 40 -29 9 -34 7 -41 -13 -54 -16 -10 -18 -9
-14 8 3 10 0 19 -6 19 -6 0 -11 -6 -11 -14 0 -8 -6 -16 -12 -18 -7 -3 -13 -20
-13 -39 0 -23 -5 -34 -15 -34 -8 0 -14 -8 -12 -17 1 -10 -6 -19 -19 -23 -17
-6 -18 -9 -8 -16 10 -6 8 -10 -11 -18 -14 -5 -19 -10 -12 -10 7 -1 10 -6 6
-13 -5 -8 -2 -9 9 -5 20 7 20 6 7 -27 -5 -14 -17 -26 -27 -27 -12 -1 -10 -4 7
-9 21 -7 22 -8 5 -9 -16 -1 -17 -3 -6 -10 12 -8 11 -14 -5 -38 -10 -15 -17
-32 -16 -37 2 -5 -4 -4 -12 3 -13 11 -15 9 -13 -14 1 -14 9 -30 17 -35 13 -9
13 -11 0 -20 -9 -6 -16 -6 -18 0 -2 5 -13 0 -25 -11 -19 -17 -20 -21 -7 -30
13 -8 12 -11 -4 -20 -14 -9 -15 -13 -6 -19 9 -6 6 -10 -9 -15 -21 -6 -30 -25
-11 -25 5 0 7 -6 4 -14 -3 -7 1 -16 9 -19 10 -4 13 -15 9 -34 -5 -24 -3 -26
10 -15 13 10 17 10 22 -3 4 -10 2 -14 -5 -9 -7 4 -9 -1 -7 -12 2 -11 11 -18
20 -18 13 1 14 -4 8 -27 -6 -19 -5 -31 3 -36 7 -5 18 -26 26 -48 8 -22 16 -46
18 -52 3 -7 0 -13 -7 -13 -6 0 -8 5 -5 10 3 6 2 10 -3 10 -5 0 -12 -11 -14
-25 -5 -22 -2 -25 16 -19 18 5 17 2 -7 -21 -17 -16 -26 -33 -23 -42 3 -8 6
-22 6 -31 1 -15 3 -14 15 2 12 15 15 16 15 5 0 -9 -3 -19 -7 -23 -11 -11 -12
-36 -2 -36 6 0 5 -8 -1 -20 -7 -12 -7 -20 -1 -20 5 0 8 -9 6 -19 -2 -12 6 -26
21 -38 24 -18 32 -47 15 -57 -5 -4 -12 0 -15 6 -3 7 -3 3 0 -9 3 -13 1 -23 -4
-23 -14 0 -23 -43 -10 -51 7 -5 4 -16 -11 -35 -13 -17 -18 -30 -12 -32 6 -2
11 -11 11 -21 0 -9 5 -22 12 -29 9 -9 7 -12 -9 -12 -16 0 -23 7 -26 28 -3 20
-4 16 -6 -13 0 -23 5 -47 11 -53 10 -10 10 -15 -1 -21 -10 -7 -11 -19 -3 -55
5 -27 6 -49 1 -52 -5 -3 -7 -15 -4 -27 2 -12 1 -38 -4 -57 -5 -19 -9 -29 -10
-22 -1 9 -8 6 -22 -7 -21 -19 -20 -61 2 -61 18 0 9 -29 -11 -35 -11 -4 -18
-10 -16 -14 5 -8 -25 -130 -37 -148 -5 -8 -4 -13 2 -13 6 0 15 9 21 20 17 32
30 13 14 -20 -17 -33 -12 -52 11 -43 8 3 15 0 15 -5 0 -6 -8 -13 -17 -15 -17
-4 -17 -5 0 -6 9 0 17 -8 17 -16 0 -9 -6 -12 -17 -8 -13 5 -15 2 -10 -11 17
-45 20 -69 7 -61 -10 6 -11 2 -6 -16 4 -13 8 -32 7 -41 0 -10 4 -18 10 -18 5
0 9 -8 9 -17 0 -14 2 -15 9 -4 14 22 34 2 27 -29 -3 -18 -1 -27 7 -27 30 1 47
-4 47 -13 0 -5 -7 -7 -15 -4 -15 6 -21 -7 -8 -19 11 -12 11 -92 -1 -99 -7 -5
-5 -17 8 -39 10 -18 14 -29 7 -25 -16 10 -14 -3 4 -20 20 -20 19 -52 -2 -56
-15 -3 -15 -4 0 -20 11 -10 13 -19 7 -23 -16 -10 -12 -25 7 -25 13 0 14 -3 5
-12 -17 -17 -15 -29 3 -22 10 4 15 0 15 -15 0 -12 3 -21 8 -21 4 0 7 -16 8
-35 0 -23 -5 -36 -15 -39 -12 -3 -10 -6 7 -11 23 -8 31 -25 11 -25 -8 0 -8 -4
-2 -12 17 -21 1 -109 -21 -122 -36 -20 -70 -55 -62 -63 5 -4 11 -2 13 5 3 6 9
12 14 12 6 0 8 -4 5 -9 -4 -5 8 -15 24 -23 21 -9 29 -18 27 -30 -4 -12 6 -19
37 -27 40 -11 113 -61 89 -61 -7 0 -13 -5 -13 -11 0 -6 17 -9 43 -8 l42 3 0
-39 c0 -22 4 -46 8 -52 5 -9 3 -13 -7 -13 -9 0 -16 -4 -16 -10 0 -5 -18 -20
-40 -32 -22 -13 -40 -28 -40 -34 0 -6 -16 -23 -35 -38 -19 -16 -32 -32 -29
-37 8 -14 -56 -71 -73 -65 -7 3 -13 -1 -13 -9 0 -8 5 -15 10 -15 6 0 10 -5 10
-11 0 -6 -7 -9 -15 -6 -20 8 -29 -11 -14 -29 10 -13 10 -17 -2 -25 -12 -8 -12
-10 1 -19 8 -5 19 -11 25 -13 5 -2 2 -11 -8 -21 -21 -21 -22 -32 -2 -40 8 -3
15 -16 15 -28 0 -17 -3 -19 -9 -9 -6 9 -11 10 -15 2 -4 -6 -4 -15 -1 -21 3 -5
-8 -24 -25 -41 -18 -19 -28 -39 -25 -48 3 -10 -3 -23 -14 -31 -16 -11 -18 -18
-9 -33 5 -11 6 -17 1 -14 -5 3 -10 -10 -10 -29 -1 -38 18 -46 37 -16 9 14 10
13 4 -8 -4 -14 -9 -31 -11 -37 -3 -7 0 -13 7 -13 6 0 9 -4 5 -9 -3 -5 -1 -12
5 -16 12 -7 14 -65 2 -65 -4 0 -8 -8 -9 -17 -2 -29 -11 -77 -18 -94 -3 -10 1
-24 11 -34 17 -17 17 -17 -6 -10 -23 7 -23 7 -7 -9 20 -20 21 -30 6 -58 -10
-18 -9 -20 5 -15 16 6 20 -4 17 -49 -1 -11 9 -31 22 -44 14 -13 23 -30 20 -37
-3 -7 0 -13 6 -13 6 0 10 -3 10 -7 -1 -5 -1 -21 0 -37 1 -20 5 -27 16 -23 18
7 26 -5 16 -22 -5 -7 0 -28 10 -49 14 -27 16 -38 7 -43 -9 -6 -9 -9 2 -14 16
-6 19 -57 5 -87 -4 -10 -5 -24 -2 -32 3 -8 2 -16 -2 -18 -14 -5 -24 -48 -11
-48 8 0 7 -6 -1 -22 -10 -18 -9 -20 5 -15 10 4 14 3 11 -2 -3 -5 3 -12 12 -14
14 -4 12 -5 -5 -6 l-23 -1 22 -30 c13 -16 19 -33 15 -37 -4 -4 -11 -1 -16 7
-6 9 -10 10 -10 3 0 -6 11 -20 25 -31 18 -14 24 -27 22 -53 -1 -19 -6 -40 -11
-47 -4 -7 -3 -19 3 -26 8 -9 7 -18 -3 -31 -9 -13 -11 -28 -6 -47 10 -33 -2
-84 -19 -80 -7 1 -9 -2 -6 -8 4 -6 10 -9 13 -6 3 3 12 -4 20 -15 12 -17 12
-23 2 -29 -7 -4 -10 -12 -6 -18 3 -6 -2 -16 -11 -21 -17 -11 -17 -12 0 -25 10
-7 15 -20 11 -29 -3 -8 0 -18 6 -22 7 -4 9 -23 4 -52 -5 -31 -3 -48 6 -53 9
-6 9 -12 -2 -29 -10 -18 -11 -23 0 -30 7 -4 11 -14 9 -22 -2 -8 -2 -11 0 -6 3
4 9 5 13 2 5 -3 0 -15 -12 -27 -12 -12 -17 -23 -12 -25 6 -2 8 -18 6 -36 -5
-29 -3 -31 12 -18 13 11 16 11 17 0 2 -53 10 -93 20 -100 6 -4 8 -12 4 -19 -4
-7 -7 -54 -7 -106 1 -72 -2 -93 -11 -87 -7 4 -4 -4 6 -17 28 -39 31 -51 16
-61 -11 -7 -11 -9 4 -9 9 0 17 -4 17 -10 0 -5 -4 -10 -10 -10 -5 0 -10 -7 -10
-15 0 -8 7 -15 15 -15 19 0 19 -34 0 -53 -11 -12 -12 -17 -2 -24 17 -13 83
-43 95 -43 5 0 15 -6 22 -14 6 -8 17 -13 25 -10 7 3 16 1 20 -5 3 -6 15 -11
26 -11 13 0 18 -4 13 -12 -5 -8 4 -9 34 -4 29 4 42 3 42 -5 0 -8 4 -8 14 0 18
15 66 4 84 -18 11 -14 14 -14 22 -1 8 13 11 12 24 -5 9 -11 16 -14 16 -7 0 6
7 12 16 12 11 0 14 -6 9 -22 -6 -17 -4 -20 9 -15 9 4 27 2 40 -3 13 -4 27 -5
32 0 14 13 66 14 98 1 30 -12 116 -10 148 4 9 4 23 3 30 -1 19 -12 34 -14 138
-18 92 -3 142 8 122 29 -4 4 14 5 40 2 26 -4 49 -3 52 1 8 14 -27 74 -48 82
-20 8 -20 9 4 11 14 1 18 3 10 5 -17 5 -46 62 -36 71 3 3 1 12 -5 19 -6 8 -9
20 -6 29 4 8 1 17 -4 21 -6 3 -8 16 -5 29 4 15 1 25 -9 29 -8 3 -12 12 -9 21
4 8 -1 17 -10 21 -9 3 -16 13 -16 20 0 8 -6 25 -14 37 -7 12 -13 32 -11 44 1
13 -1 23 -5 23 -4 0 -7 16 -8 35 -1 20 -4 41 -8 47 -4 5 0 14 7 19 10 6 11 11
3 17 -11 6 -28 63 -24 78 1 4 -4 10 -10 14 -8 5 -7 12 5 23 9 10 13 22 8 29
-4 7 -6 22 -5 34 2 13 -6 27 -22 38 -15 9 -23 22 -20 30 3 8 1 17 -5 20 -7 5
-7 15 -1 31 5 14 6 25 2 25 -12 0 -30 70 -20 76 5 3 4 11 -2 19 -8 9 -6 14 6
19 16 6 16 8 -1 20 -12 9 -16 21 -13 39 3 15 1 27 -4 27 -6 0 -7 7 -4 16 5 12
2 15 -11 10 -16 -6 -16 -6 0 12 9 10 17 28 17 41 0 12 7 24 15 27 8 4 15 18
15 33 0 14 9 41 21 60 16 27 18 36 7 42 -10 7 -9 9 3 9 22 0 32 53 17 86 -10
21 -9 27 3 35 11 8 11 12 2 16 -7 2 -13 14 -13 26 0 16 -3 18 -9 9 -7 -11 -10
-10 -15 3 -8 22 1 36 18 29 9 -3 17 3 21 15 6 19 16 25 37 23 11 -2 18 27 8
33 -16 10 13 45 36 45 12 0 24 7 28 15 7 18 -10 20 -17 3 -4 -10 -8 -9 -17 2
-9 11 -13 12 -17 3 -8 -21 -27 -15 -40 13 -9 20 -9 25 0 21 7 -3 14 4 14 14 1
11 -2 17 -7 14 -4 -3 -11 2 -14 11 -9 22 -8 24 9 24 8 0 15 8 15 18 0 19 38
48 58 44 6 -2 12 3 12 9 0 7 3 9 6 6 4 -4 1 -13 -6 -22 -11 -13 -10 -14 4 -9
9 3 16 2 16 -4 0 -6 -6 -13 -12 -15 -8 -3 -6 -6 5 -6 9 -1 17 -5 17 -11 0 -5
15 -8 33 -6 17 3 43 5 57 5 19 1 22 3 11 10 -12 8 -9 11 12 16 15 4 31 15 36
24 5 8 12 13 16 10 3 -4 -1 -14 -10 -23 -10 -10 -14 -23 -10 -34 6 -16 7 -16
16 1 13 22 69 24 69 2 0 -8 -8 -15 -17 -15 -13 0 -18 -9 -19 -30 -1 -27 2 -30
28 -30 16 0 31 -6 34 -15 4 -11 13 -13 28 -9 16 5 18 3 10 -6 -16 -16 -6 -50
12 -43 8 3 14 0 14 -6 0 -6 6 -11 13 -11 17 0 16 -53 -3 -67 -13 -11 -12 -12
8 -13 12 0 22 -4 22 -10 0 -5 7 -10 15 -10 18 0 18 2 0 -50 -15 -41 -14 -44 8
-74 34 -45 42 -60 29 -52 -25 15 -10 -20 17 -43 23 -19 28 -29 20 -42 -7 -14
-4 -19 11 -24 23 -7 25 -16 8 -33 -9 -9 -9 -12 0 -12 9 0 10 -12 6 -39 -5 -33
-3 -41 14 -50 13 -7 18 -17 15 -30 -3 -10 0 -22 7 -26 8 -5 7 -11 -2 -23 -11
-13 -11 -14 2 -10 13 4 15 549 18 4811 l2 4807 -1195 0 c-790 0 -1195 -3
-1195 -10z"/>
<path d="M17970 1163 c0 -7 -7 -13 -15 -13 -8 0 -19 -9 -25 -21 -7 -11 -25
-25 -41 -31 -16 -5 -29 -14 -29 -19 0 -5 -12 -6 -26 -3 -21 5 -31 2 -43 -15
-16 -21 -17 -21 -17 -1 0 11 4 20 8 20 4 0 5 7 1 16 -6 16 -7 16 -18 0 -12
-16 -41 -23 -31 -7 3 5 -4 11 -17 15 -36 10 -39 7 -17 -16 11 -12 17 -24 14
-27 -3 -3 -9 1 -13 8 -12 18 -27 7 -39 -29 -9 -23 -8 -31 3 -38 11 -5 12 -16
7 -37 -7 -26 -9 -27 -16 -10 -6 16 -9 17 -16 5 -6 -9 -5 -17 3 -22 8 -5 6 -8
-7 -8 -15 0 -17 -6 -14 -30 3 -16 1 -30 -3 -30 -5 0 -6 -7 -3 -15 4 -8 1 -15
-5 -15 -6 0 -11 -7 -11 -16 0 -9 5 -13 13 -9 6 4 3 -1 -8 -10 -11 -9 -19 -21
-17 -27 2 -6 -1 -14 -5 -17 -18 -13 -49 -77 -46 -93 3 -10 -1 -18 -7 -18 -7 0
-10 -7 -6 -15 3 -8 1 -15 -3 -15 -5 0 -7 -9 -4 -20 3 -11 9 -20 14 -20 16 0
10 -29 -10 -49 -13 -13 -16 -23 -9 -35 6 -10 5 -16 -2 -16 -13 0 -13 -33 1
-47 5 -5 10 -29 11 -52 0 -22 5 -41 10 -41 6 0 7 -11 4 -24 -3 -14 -2 -28 4
-31 6 -4 5 -16 -5 -34 -8 -16 -11 -31 -8 -35 4 -3 1 -6 -7 -6 -9 0 -10 -3 -2
-13 6 -7 9 -28 7 -47 -3 -20 0 -37 8 -42 9 -6 9 -10 -1 -16 -10 -7 -10 -11 2
-22 9 -7 13 -17 10 -22 -3 -5 2 -18 12 -29 17 -18 39 -19 831 -19 l813 0 0
525 c0 460 -2 525 -15 525 -8 0 -15 -6 -15 -14 0 -8 -8 -14 -17 -14 -10 1 -29
-2 -42 -6 -16 -6 -21 -5 -17 3 5 7 -3 9 -23 5 -23 -5 -32 -2 -40 15 -10 18
-14 19 -33 8 -12 -6 -29 -21 -38 -31 -24 -28 -115 -32 -137 -7 -9 11 -22 17
-30 14 -9 -4 -11 0 -7 12 5 13 3 16 -7 13 -8 -3 -13 -11 -11 -17 1 -8 -3 -8
-17 1 -11 7 -18 15 -16 18 2 3 0 12 -6 20 -5 9 -9 10 -9 4 0 -15 -73 0 -78 15
-2 6 -8 11 -13 11 -4 0 -6 -7 -2 -16 4 -12 0 -14 -23 -8 -16 4 -32 11 -35 17
-4 5 -8 4 -11 -3 -5 -17 -60 -23 -69 -8 -10 15 -58 15 -87 -1 -16 -9 -32 -9
-59 -2 -21 6 -40 7 -43 3 -11 -17 -40 -21 -54 -7 -12 12 -47 17 -175 24 -9 1
-11 9 -7 25 4 15 1 26 -7 29 -9 4 -9 8 2 15 10 7 -2 9 -38 8 -33 -1 -51 -5
-51 -13z"/>
<path d="M13800 141 c-8 -5 -32 -11 -52 -15 -39 -7 -98 -49 -98 -69 1 -7 9
-22 19 -34 18 -21 27 -23 132 -23 l113 0 -27 28 c-17 17 -27 39 -27 58 0 17
-3 24 -8 17 -5 -7 -17 -10 -31 -6 -23 6 -23 7 -6 20 22 15 8 36 -15 24z"/>
</g>
</svg>
